<?xml version="1.0" standalone="no"?>
<!DOCTYPE svg PUBLIC "-//W3C//DTD SVG 20010904//EN"
 "http://www.w3.org/TR/2001/REC-SVG-20010904/DTD/svg10.dtd">
<svg version="1.0" xmlns="http://www.w3.org/2000/svg"
 width="295.000000pt" height="295.000000pt" viewBox="0 0 295.000000 295.000000"
 preserveAspectRatio="xMidYMid meet">

<g transform="translate(0.000000,295.000000) scale(0.100000,-0.100000)"
fill="#000000" stroke="none">
<path d="M600 2505 c0 -163 2 -186 16 -192 9 -3 24 -2 33 4 13 8 16 35 19 156
l3 146 141 3 c119 3 143 6 151 20 8 12 7 21 -2 32 -11 14 -41 16 -187 16
l-174 0 0 -185z"/>
<path d="M2026 2674 c-41 -41 -3 -54 157 -54 l134 0 -1 -146 c-1 -125 1 -148
15 -157 9 -6 24 -7 33 -4 14 6 16 29 16 192 l0 185 -169 0 c-141 0 -172 -3
-185 -16z"/>
<path d="M1171 2495 c-115 -32 -238 -120 -309 -219 l-33 -46 244 0 c205 0 247
2 257 15 25 30 90 8 90 -31 0 -15 -35 -54 -49 -54 -4 0 -20 9 -34 20 -24 19
-40 20 -276 20 l-250 0 -14 -27 c-8 -16 -18 -38 -21 -50 l-7 -23 194 0 c168 0
196 2 201 16 8 20 55 15 70 -8 24 -39 -44 -79 -74 -44 -10 14 -43 16 -202 16
-167 0 -189 -2 -195 -17 -9 -24 11 -132 36 -188 l22 -49 87 87 87 87 158 0
c145 0 160 2 186 21 23 17 32 19 50 10 37 -20 22 -81 -20 -81 -9 0 -22 7 -29
15 -10 12 -43 15 -174 15 l-161 0 -84 -84 -84 -84 22 -31 23 -31 80 75 81 75
184 0 c115 0 183 -4 183 -10 0 -6 -67 -10 -181 -10 l-181 0 -75 -72 -75 -73
43 -38 c23 -21 47 -36 53 -34 6 2 11 23 11 46 0 57 43 82 79 45 27 -26 19 -52
-24 -79 -22 -14 -40 -29 -40 -34 0 -5 14 -21 31 -36 31 -26 32 -26 46 -5 16
22 52 27 71 8 17 -17 15 -55 -4 -66 -14 -8 -11 -13 22 -36 21 -14 41 -26 44
-26 3 0 4 39 3 86 -1 62 -5 90 -17 103 -34 38 -9 89 38 77 35 -9 43 -42 17
-70 -18 -19 -21 -35 -21 -118 l0 -96 49 -21 c67 -28 121 -28 149 2 21 23 38
86 45 172 3 39 3 39 14 14 27 -63 148 -129 236 -129 18 0 36 -11 54 -31 16
-18 40 -37 54 -43 14 -6 66 -49 115 -94 l89 -84 0 -126 c0 -142 -18 -211 -67
-264 -48 -52 -106 -30 -94 36 8 40 -3 51 -37 35 -19 -9 -30 -8 -49 5 -32 21
-38 13 -38 -45 0 -113 74 -189 184 -189 67 0 76 6 65 42 l-8 31 22 -22 c28
-26 35 -26 66 -2 24 18 24 19 7 46 -22 34 -14 43 20 20 26 -17 27 -17 50 11
13 16 23 31 24 34 0 3 -14 13 -30 22 -41 23 -39 39 2 27 46 -13 55 -11 61 9 2
9 8 24 11 33 5 12 1 18 -16 22 -13 4 -32 13 -43 22 -19 15 -17 16 28 10 44 -6
48 -5 57 20 16 43 12 50 -35 63 -61 16 -58 33 4 25 48 -5 50 -5 57 22 7 27 8
27 63 21 31 -4 90 -2 130 4 72 10 171 45 171 61 0 4 -21 11 -47 14 -88 12
-188 33 -238 52 l-50 19 -3 63 -3 63 -65 -4 c-35 -2 -64 0 -64 3 0 10 77 39
100 39 21 0 24 15 14 69 -6 28 -10 31 -43 31 -20 0 -55 -9 -78 -20 -24 -10
-43 -15 -43 -10 0 16 74 60 112 66 l36 6 -12 42 c-12 40 -14 41 -53 40 -22 0
-59 -10 -82 -22 -22 -12 -41 -18 -41 -14 0 22 92 82 125 82 8 0 15 5 15 10 0
21 -31 70 -44 70 -24 0 -99 -30 -118 -47 -10 -9 -18 -12 -18 -6 0 16 53 61 93
78 20 8 37 17 37 20 0 2 -9 28 -19 57 -11 29 -25 80 -30 112 -11 62 -22 83
-76 151 -18 22 -54 78 -81 124 -54 92 -86 117 -189 147 -54 16 -119 19 -270
12 -11 -1 -47 7 -80 16 -85 25 -208 29 -274 11z m414 -390 c0 -5 -17 -11 -37
-13 -32 -3 -38 -7 -38 -27 0 -30 -10 -55 -21 -55 -5 0 -9 25 -9 56 l0 55 53
-3 c28 -2 52 -7 52 -13z m353 -37 c-3 -61 -21 -71 -26 -16 -3 34 -5 37 -39 40
-20 2 -38 9 -41 16 -3 9 12 12 53 12 l56 0 -3 -52z m-248 13 c0 -5 -17 -18
-37 -28 -26 -12 -44 -31 -58 -60 -22 -47 -41 -57 -31 -17 11 44 38 76 81 95
47 22 45 21 45 10z m111 -24 c20 -15 59 -77 59 -94 0 -22 -18 -14 -25 10 -10
32 -45 67 -83 84 -39 16 -34 36 6 22 15 -5 34 -15 43 -22z m-101 -37 c0 -11 5
-20 10 -20 6 0 10 9 10 20 0 11 2 20 5 20 17 0 66 -33 75 -49 13 -26 13 -52
-1 -48 -6 1 -14 -4 -16 -10 -3 -7 2 -13 11 -13 25 0 19 -29 -13 -61 -34 -34
-61 -38 -61 -9 0 11 -4 20 -10 20 -5 0 -10 -9 -10 -20 0 -27 -22 -25 -58 5
-37 31 -48 65 -21 65 25 0 24 16 -1 23 -29 7 -25 24 14 63 38 38 66 44 66 14z
m-120 -122 c0 -23 72 -98 95 -98 8 0 15 -5 15 -11 0 -14 -37 -2 -73 23 -41 30
-76 108 -47 108 6 0 10 -10 10 -22z m275 -5 c-13 -57 -51 -95 -107 -108 -40
-10 -34 9 7 24 37 13 85 67 85 94 0 10 5 17 11 17 7 0 9 -10 4 -27z m-347 -86
c3 -35 5 -37 37 -37 19 0 37 -4 40 -10 7 -12 -33 -23 -71 -18 -27 3 -29 6 -32
57 -2 40 0 52 10 49 7 -3 14 -21 16 -41z m430 -9 l-3 -53 -49 0 c-31 0 -51 5
-53 13 -3 8 8 12 36 12 l41 0 0 40 c0 29 4 40 16 40 12 0 14 -10 12 -52z m130
-361 c43 -40 100 -87 126 -104 68 -45 185 -92 274 -109 42 -8 77 -16 80 -18 2
-2 -25 -7 -61 -11 -118 -13 -274 25 -394 96 -57 34 -193 159 -193 178 0 13 49
40 73 41 9 0 52 -33 95 -73z"/>
<path d="M1350 2216 c0 -8 4 -17 8 -20 13 -8 35 11 28 23 -10 16 -36 14 -36
-3z"/>
<path d="M1174 2099 c-3 -6 0 -17 8 -25 13 -13 16 -13 27 0 7 8 10 20 6 26 -8
13 -32 13 -41 -1z"/>
<path d="M693 2018 c-18 -20 -20 -29 -13 -81 5 -33 28 -99 56 -160 39 -82 49
-115 52 -169 4 -59 8 -70 36 -97 l31 -30 0 122 0 122 -36 51 c-55 76 -71 112
-89 192 l-16 73 -21 -23z"/>
<path d="M1357 2013 c-15 -14 -7 -43 12 -43 26 0 36 17 21 35 -14 16 -23 19
-33 8z"/>
<path d="M618 1959 c-12 -7 -18 -22 -18 -46 0 -42 26 -145 47 -188 21 -43 77
-125 85 -125 11 0 -18 103 -51 178 -18 41 -35 100 -39 132 -6 52 -9 58 -24 49z"/>
<path d="M1032 1723 c2 -10 10 -18 18 -18 8 0 16 8 18 18 2 12 -3 17 -18 17
-15 0 -20 -5 -18 -17z"/>
<path d="M1224 1715 c-4 -9 -2 -21 4 -27 15 -15 44 -1 40 19 -4 23 -36 29 -44
8z"/>
<path d="M900 1589 c0 -113 12 -160 50 -202 l29 -32 0 130 -1 130 -39 34 -39
33 0 -93z"/>
<path d="M1116 1584 c-4 -10 -2 -22 3 -27 14 -14 43 0 39 20 -4 24 -34 28 -42
7z"/>
<path d="M1014 1513 c4 -38 16 -104 28 -148 l21 -80 125 -120 c68 -66 128
-122 133 -123 16 -6 -1 49 -39 128 -26 54 -52 90 -96 131 l-60 55 0 72 -1 72
-53 40 c-29 22 -55 40 -59 40 -3 0 -3 -30 1 -67z"/>
<path d="M612 1528 c-8 -8 -12 -66 -12 -195 l0 -183 169 0 c141 0 172 3 185
16 19 19 20 26 4 42 -8 8 -56 12 -150 12 l-138 0 0 144 c0 118 -3 147 -16 160
-19 19 -26 20 -42 4z"/>
<path d="M1516 1494 c-9 -48 36 -144 110 -236 69 -86 104 -161 111 -239 l6
-61 28 49 c36 63 59 151 59 230 0 35 7 80 15 100 8 19 15 37 15 38 0 1 -14 8
-30 15 -17 7 -42 27 -55 44 -25 31 -25 31 -25 6 0 -14 9 -44 20 -67 10 -24 15
-43 10 -43 -14 0 -69 72 -80 106 -7 22 -19 34 -37 39 -14 3 -28 4 -30 1 -12
-11 23 -82 69 -142 55 -73 78 -120 78 -161 0 -26 -2 -26 -19 12 -10 22 -48 73
-84 113 -60 67 -107 152 -107 195 0 16 -20 37 -36 37 -6 0 -15 -16 -18 -36z"/>
<path d="M1150 1424 c0 -52 4 -64 25 -84 30 -28 30 -28 9 58 -22 90 -34 99
-34 26z"/>
<path d="M1286 1376 c39 -50 111 -107 100 -80 -5 10 -12 33 -17 50 -7 24 -18
34 -47 43 -20 7 -43 15 -51 18 -8 3 -1 -11 15 -31z"/>
<path d="M1435 1388 c-11 -6 -21 -12 -22 -12 -1 -1 4 -24 11 -51 20 -78 53
-135 112 -195 l54 -55 6 -133 c4 -72 10 -132 15 -132 4 0 19 14 33 31 23 28
26 39 26 115 0 102 -10 128 -91 239 -33 47 -72 111 -84 142 -26 63 -31 67 -60
51z"/>
<path d="M1295 1321 c19 -62 78 -168 115 -203 36 -35 40 -43 40 -88 0 -28 4
-50 10 -50 19 0 23 -50 5 -69 -15 -18 -15 -21 1 -53 9 -18 19 -64 22 -102 l5
-70 28 34 c27 32 29 40 29 126 0 65 -7 120 -25 190 l-25 99 -106 105 c-71 71
-104 97 -99 81z"/>
<path d="M1388 1044 c2 -38 6 -71 8 -73 2 -2 10 2 19 9 23 19 19 75 -8 106
l-23 26 4 -68z"/>
<path d="M1572 960 c0 -19 2 -27 5 -17 2 9 2 25 0 35 -3 9 -5 1 -5 -18z"/>
<path d="M1419 954 c-9 -11 -9 -18 -1 -26 14 -14 42 -3 42 16 0 20 -27 27 -41
10z"/>
<path d="M1570 799 c0 -11 4 -18 10 -14 5 3 7 12 3 20 -7 21 -13 19 -13 -6z"/>
<path d="M191 453 c0 -5 19 -64 43 -133 35 -105 45 -126 64 -128 13 -2 22 2
23 10 0 7 15 53 33 103 l33 90 34 -103 c28 -87 36 -102 53 -100 16 2 29 30 64
131 25 70 42 130 39 133 -18 18 -38 -15 -67 -106 -17 -56 -34 -99 -37 -96 -3
3 -20 50 -38 103 -42 132 -54 133 -95 6 -18 -54 -36 -101 -39 -105 -4 -5 -21
39 -39 97 -27 87 -36 105 -52 105 -11 0 -20 -3 -19 -7z"/>
<path d="M687 453 c-4 -3 -7 -64 -7 -135 0 -121 1 -128 20 -128 19 0 20 7 20
135 0 106 -3 135 -13 135 -8 0 -17 -3 -20 -7z"/>
<path d="M850 325 l0 -135 95 0 c78 0 95 3 95 15 0 12 -15 15 -75 15 l-75 0 0
120 c0 113 -1 120 -20 120 -19 0 -20 -7 -20 -135z"/>
<path d="M1120 325 l0 -137 86 3 c84 4 86 5 120 41 28 31 34 45 34 83 0 95
-47 135 -167 143 l-73 5 0 -138z m172 66 c27 -24 33 -36 33 -70 0 -60 -36 -93
-109 -99 l-56 -4 0 101 0 101 50 0 c41 0 56 -5 82 -29z"/>
<path d="M1468 325 l-3 -135 98 0 c79 0 97 3 97 15 0 12 -16 15 -80 15 l-80 0
0 45 0 45 70 0 c56 0 70 3 70 15 0 12 -14 15 -70 15 l-70 0 0 40 0 40 74 0
c54 0 75 4 79 14 9 23 -2 26 -94 26 l-88 0 -3 -135z"/>
<path d="M1720 440 c0 -17 7 -20 45 -20 l45 0 0 -115 c0 -108 1 -115 20 -115
19 0 20 7 20 115 l0 115 45 0 c38 0 45 3 45 20 0 19 -7 20 -110 20 -103 0
-110 -1 -110 -20z"/>
<path d="M2020 325 l0 -135 100 0 c81 0 100 3 100 15 0 11 -18 15 -77 17 l-78
3 0 40 0 39 60 3 c33 1 63 2 68 2 4 1 7 8 7 16 0 12 -14 15 -70 15 l-70 0 0
40 0 39 78 3 c60 2 77 6 77 18 0 12 -19 16 -97 18 l-98 3 0 -136z"/>
<path d="M2353 440 c-100 -61 -76 -217 39 -252 43 -13 106 1 128 27 22 27 -2
39 -38 21 -17 -9 -40 -16 -51 -16 -89 0 -133 125 -64 180 30 24 89 27 120 5
18 -13 22 -13 33 0 7 9 11 17 9 19 -54 42 -123 48 -176 16z"/>
<path d="M2582 443 c2 -13 15 -19 46 -21 l42 -3 0 -115 c0 -107 1 -114 20
-114 19 0 20 7 20 115 l0 115 45 0 c38 0 45 3 45 20 0 19 -7 20 -111 20 -100
0 -110 -2 -107 -17z"/>
</g>
</svg>
